<svg viewBox="0 0 372.54 50.51" xmlns="http://www.w3.org/2000/svg"><g fill="#ff5900"><path d="m35.92 38.84-6.34-17.84h3.31v-4.95h-16.56v4.95h3.3l-6.34 17.84h-2.58v4.93h10.75v-4.93h-2.89l1.29-3.84h9.49l1.3 3.88h-2.89v4.93h10.75v-4.97zm-14.54-8.36 3.23-9.48 3.23 9.45z"/><path d="m181.74 38.84-6.34-17.84h3.3v-4.95h-16.55v4.95h3.3l-6.34 17.85h-2.58v4.93h10.75v-4.94h-2.89l1.29-3.84h9.49l1.29 3.88h-2.88v4.93h10.74v-4.97zm-14.54-8.36 3.23-9.48 3.22 9.45z"/><path d="m41.09 38.8h2.74v-17.8h-2.74v-4.95h8.43l12.07 18.95v-14h-2.84v-4.95h10.67v4.95h-2.74v22.77h-5.24l-12.44-19.55v14.58h2.85v5h-10.76z"/><path d="m99.65 38.8h2.73v-17.8h-2.73v-4.95h10.9v4.95h-2.85v6.34h10.78v-6.34h-2.85v-4.95h10.86v4.95h-2.73v17.8h2.73v5h-10.86v-5h2.85v-6.61h-10.78v6.61h2.85v5h-10.9z"/><path d="m131.74 33v-12h-2.66v-4.95h10.92v4.95h-2.84v12.1c0 3.46 2.24 5.85 5.62 5.85s5.65-2.32 5.65-5.85v-12.1h-2.81v-4.95h10.9v4.95h-2.66v12c0 7.17-4.29 11.12-11.08 11.12s-11.04-4.07-11.04-11.12z"/><path d="m185 29.91c0-8.08 6.08-14.23 13.48-14.23 4 0 6.57 1.48 7.67 4.25v-3.88h5v10.14h-4.9c-.83-3.41-3.19-5.31-7.32-5.31-5 0-8.47 4-8.47 9a8.62 8.62 0 0 0 8.66 8.89 8.34 8.34 0 0 0 7.88-5.06l4.89 2.62a14.22 14.22 0 0 1 -26.89-6.42z"/><path d="m94.48 38.84-6.34-17.84h3.3v-4.95h-16.55v4.95h3.3l-6.34 17.84h-2.58v4.93h10.73v-4.93h-2.87l1.29-3.84h9.49l1.29 3.88h-2.88v4.93h10.74v-4.97zm-14.54-8.36 3.23-9.48 3.22 9.45z"/><path d="m79.92 13.46 4.42-7.1h6.86l-6.29 7.1z"/><path d="m223.63 38.8h2.73v-17.8h-2.73v-4.95h8.16l8.09 12 8.2-12h8v4.95h-2.73v17.8h2.73v5h-11.08v-5h3.12v-14.62l-8.36 12.26-8.16-12.07v14.43h3.11v5h-11.08z"/><path d="m258.56 38.84h2.58l6.34-17.84h-3.3v-4.95h16.51v4.95h-3.22l6.34 17.85h2.62v4.93h-10.75v-4.94h2.81l-1.29-3.84h-9.49l-1.29 3.88h2.88v4.93h-10.74zm17.12-8.36-3.23-9.48-3.22 9.45z"/><path d="m291.17 38.8h3v-5.8l-7.44-12h-2.47v-4.95h10.82v4.95h-2.62l4.48 7.48 4.45-7.48h-2.47v-4.95h10.74v4.95h-2.66l-7.4 12v5.8h3v5h-11.43z"/><path d="m307.42 38.84h2.58l6.35-17.84h-3.35v-4.95h16.52v4.95h-3.23l6.34 17.85h2.62v4.93h-10.7v-4.94h2.81l-1.29-3.84h-9.5l-1.29 3.88h2.89v4.93h-10.75zm17.13-8.36-3.23-9.48-3.23 9.45z"/><path d="m337.8 38.8h2.73v-17.8h-2.73v-4.95h13.89c6.16 0 9.61 2.78 9.61 7.75a6.08 6.08 0 0 1 -3.11 5.58 6.52 6.52 0 0 1 3.64 6.19c0 5.47-3.83 8.2-10 8.2h-14.03zm8-17.92v6.41h6.15c2.85 0 4-1.4 4-3.3s-1.33-3.11-4.1-3.11zm0 11.08v6.95h6.15c2.93 0 4.44-1.33 4.44-3.49s-1.32-3.42-4.66-3.42z"/></g></svg>